HIERARCHY
ROOT Hips
{
	OFFSET 0.000000 35.082581 0.000000
	CHANNELS 6 Xposition Yposition Zposition Xrotation Yrotation Zrotation 
	JOINT Spine
	{
		OFFSET 0.000000 6.876099 0.125700
		CHANNELS 3 Xrotation Yrotation Zrotation
		JOINT Spine1
		{
			OFFSET 0.000000 5.730043 0.104720
			CHANNELS 3 Xrotation Yrotation Zrotation
			JOINT Spine1_split
			{
				OFFSET 0.000000 5.730043 0.104720
				CHANNELS 3 Xrotation Yrotation Zrotation
				JOINT Spine2
				{
					OFFSET 0.000000 5.730043 0.104720
					CHANNELS 3 Xrotation Yrotation Zrotation
					JOINT Neck
					{
						OFFSET 0.000000 10.314075 0.188496
						CHANNELS 3 Xrotation Yrotation Zrotation
						JOINT Head
						{
							OFFSET 0.000000 7.643700 -2.377400
							CHANNELS 3 Xrotation Yrotation Zrotation
							JOINT HeadTop_End
							{
								OFFSET 0.000000 43.788605 -13.619600
								CHANNELS 3 Xrotation Yrotation Zrotation
								End Site
								{
									OFFSET 0.000000 0.000000 0.000000
								}
							}
						}
					}
					JOINT LeftShoulder
					{
						OFFSET 2.196100 4.412489 0.087492
						CHANNELS 3 Xrotation Yrotation Zrotation
						JOINT LeftShoulder_split
						{
							OFFSET 2.196100 4.412489 0.087492
							CHANNELS 3 Xrotation Yrotation Zrotation
							JOINT LeftArm
							{
								OFFSET 8.771219 -2.981674 -0.026999
								CHANNELS 3 Xrotation Yrotation Zrotation
								JOINT LeftForeArm
								{
									OFFSET 8.512804 0.000000 -0.000000
									CHANNELS 3 Xrotation Yrotation Zrotation
									JOINT LeftHand
									{
										OFFSET 18.484802 0.000000 -0.000000
										CHANNELS 3 Xrotation Yrotation Zrotation
										JOINT LeftHandThumb1
										{
											OFFSET 2.499420 -1.158070 2.653252
											CHANNELS 3 Xrotation Yrotation Zrotation
											JOINT LeftHandThumb2
											{
												OFFSET 2.370079 -1.368366 1.368366
												CHANNELS 3 Xrotation Yrotation Zrotation
												JOINT LeftHandThumb3
												{
													OFFSET 2.676727 -1.545410 1.545409
													CHANNELS 3 Xrotation Yrotation Zrotation
													JOINT LeftHandThumb4
													{
														OFFSET 1.692226 -0.977005 0.977007
														CHANNELS 3 Xrotation Yrotation Zrotation
														End Site
														{
															OFFSET 0.000000 0.000000 0.000000
														}
													}
												}
											}
										}
										JOINT LeftHandIndex1
										{
											OFFSET 7.924831 -0.457527 2.345128
											CHANNELS 3 Xrotation Yrotation Zrotation
											JOINT LeftHandIndex2
											{
												OFFSET 3.643303 0.000000 0.000000
												CHANNELS 3 Xrotation Yrotation Zrotation
												JOINT LeftHandIndex3
												{
													OFFSET 3.810799 0.000000 0.000000
													CHANNELS 3 Xrotation Yrotation Zrotation
													JOINT LeftHandIndex4
													{
														OFFSET 2.403702 0.000000 0.000000
														CHANNELS 3 Xrotation Yrotation Zrotation
														End Site
														{
															OFFSET 0.000000 0.000000 0.000000
														}
													}
												}
											}
										}
										JOINT LeftHandMiddle1
										{
											OFFSET 8.563995 0.000000 -0.000000
											CHANNELS 3 Xrotation Yrotation Zrotation
											JOINT LeftHandMiddle2
											{
												OFFSET 3.861618 0.000000 0.000000
												CHANNELS 3 Xrotation Yrotation Zrotation
												JOINT LeftHandMiddle3
												{
													OFFSET 3.701603 0.000000 0.000000
													CHANNELS 3 Xrotation Yrotation Zrotation
													JOINT LeftHandMiddle4
													{
														OFFSET 2.322544 0.000000 0.000000
														CHANNELS 3 Xrotation Yrotation Zrotation
														End Site
														{
															OFFSET 0.000000 0.000000 0.000000
														}
													}
												}
											}
										}
										JOINT LeftHandRing1
										{
											OFFSET 8.426460 -0.424637 -3.286992
											CHANNELS 3 Xrotation Yrotation Zrotation
											JOINT LeftHandRing2
											{
												OFFSET 3.126408 0.000000 0.000000
												CHANNELS 3 Xrotation Yrotation Zrotation
												JOINT LeftHandRing3
												{
													OFFSET 3.085026 0.000000 0.000000
													CHANNELS 3 Xrotation Yrotation Zrotation
													JOINT LeftHandRing4
													{
														OFFSET 1.644005 0.000000 0.000000
														CHANNELS 3 Xrotation Yrotation Zrotation
														End Site
														{
															OFFSET 0.000000 0.000000 0.000000
														}
													}
												}
											}
										}
									}
								}
							}
						}
					}
					JOINT RightShoulder
					{
						OFFSET -2.196100 4.412496 0.070690
						CHANNELS 3 Xrotation Yrotation Zrotation
						JOINT RightShoulder_split
						{
							OFFSET -2.196100 4.412496 0.070690
							CHANNELS 3 Xrotation Yrotation Zrotation
							JOINT RightArm
							{
								OFFSET -8.771282 -2.981682 -0.094208
								CHANNELS 3 Xrotation Yrotation Zrotation
								JOINT RightForeArm
								{
									OFFSET -8.494598 0.000000 0.000000
									CHANNELS 3 Xrotation Yrotation Zrotation
									JOINT RightHand
									{
										OFFSET -18.483803 0.000000 0.000001
										CHANNELS 3 Xrotation Yrotation Zrotation
										JOINT RightHandThumb1
										{
											OFFSET -2.527351 -1.008072 2.575253
											CHANNELS 3 Xrotation Yrotation Zrotation
											JOINT RightHandThumb2
											{
												OFFSET -2.321518 -1.340328 1.340329
												CHANNELS 3 Xrotation Yrotation Zrotation
												JOINT RightHandThumb3
												{
													OFFSET -2.657753 -1.534454 1.534455
													CHANNELS 3 Xrotation Yrotation Zrotation
													JOINT RightHandThumb4
													{
														OFFSET -1.807510 -1.043568 1.043567
														CHANNELS 3 Xrotation Yrotation Zrotation
														End Site
														{
															OFFSET 0.000000 0.000000 0.000000
														}
													}
												}
											}
										}
										JOINT RightHandIndex1
										{
											OFFSET -8.811420 0.015533 2.887987
											CHANNELS 3 Xrotation Yrotation Zrotation
											JOINT RightHandIndex2
											{
												OFFSET -3.537502 0.000000 0.000000
												CHANNELS 3 Xrotation Yrotation Zrotation
												JOINT RightHandIndex3
												{
													OFFSET -3.356201 0.000000 0.000000
													CHANNELS 3 Xrotation Yrotation Zrotation
													JOINT RightHandIndex4
													{
														OFFSET -1.933098 0.000000 0.000000
														CHANNELS 3 Xrotation Yrotation Zrotation
														End Site
														{
															OFFSET 0.000000 0.000000 0.000000
														}
													}
												}
											}
										}
										JOINT RightHandMiddle1
										{
											OFFSET -8.178135 0.000000 0.000000
											CHANNELS 3 Xrotation Yrotation Zrotation
											JOINT RightHandMiddle2
											{
												OFFSET -3.901302 0.000000 0.000000
												CHANNELS 3 Xrotation Yrotation Zrotation
												JOINT RightHandMiddle3
												{
													OFFSET -3.909599 0.000000 0.000000
													CHANNELS 3 Xrotation Yrotation Zrotation
													JOINT RightHandMiddle4
													{
														OFFSET -2.376003 0.000000 0.000000
														CHANNELS 3 Xrotation Yrotation Zrotation
														End Site
														{
															OFFSET 0.000000 0.000000 0.000000
														}
													}
												}
											}
										}
										JOINT RightHandRing1
										{
											OFFSET -7.559013 0.014137 -2.865403
											CHANNELS 3 Xrotation Yrotation Zrotation
											JOINT RightHandRing2
											{
												OFFSET -3.449306 0.000000 0.000000
												CHANNELS 3 Xrotation Yrotation Zrotation
												JOINT RightHandRing3
												{
													OFFSET -3.362106 0.000000 0.000000
													CHANNELS 3 Xrotation Yrotation Zrotation
													JOINT RightHandRing4
													{
														OFFSET -2.076401 0.000000 0.000000
														CHANNELS 3 Xrotation Yrotation Zrotation
														End Site
														{
															OFFSET 0.000000 0.000000 0.000000
														}
													}
												}
											}
										}
									}
								}
							}
						}
					}
				}
			}
		}
	}
	JOINT LeftUpLeg
	{
		OFFSET 10.205400 -3.823500 0.155100
		CHANNELS 3 Xrotation Yrotation Zrotation
		JOINT LeftLeg
		{
			OFFSET 0.708757 -12.982077 0.567790
			CHANNELS 3 Xrotation Yrotation Zrotation
			JOINT LeftFoot
			{
				OFFSET -0.708756 -10.717838 -2.184338
				CHANNELS 3 Xrotation Yrotation Zrotation
				JOINT LeftToeBase
				{
					OFFSET 0.108149 -7.191104 7.560241
					CHANNELS 3 Xrotation Yrotation Zrotation
					JOINT LeftToe_End
					{
						OFFSET 0.070230 0.081724 4.490308
						CHANNELS 3 Xrotation Yrotation Zrotation
						End Site
						{
							OFFSET 0.000000 0.000000 0.000000
						}
					}
				}
			}
		}
	}
	JOINT RightUpLeg
	{
		OFFSET -10.205400 -3.823500 0.005500
		CHANNELS 3 Xrotation Yrotation Zrotation
		JOINT RightLeg
		{
			OFFSET -0.708756 -12.982134 0.610632
			CHANNELS 3 Xrotation Yrotation Zrotation
			JOINT RightFoot
			{
				OFFSET 0.708754 -10.717769 -1.945823
				CHANNELS 3 Xrotation Yrotation Zrotation
				JOINT RightToeBase
				{
					OFFSET -0.108140 -7.191069 7.372968
					CHANNELS 3 Xrotation Yrotation Zrotation
					JOINT RightToe_End
					{
						OFFSET -0.070227 0.081735 4.479403
						CHANNELS 3 Xrotation Yrotation Zrotation
						End Site
						{
							OFFSET 0.000000 0.000000 0.000000
						}
					}
				}
			}
		}
	}
}
MOTION
Frames: 6
Frame Time: 0.016667
3.707240 34.087307 -1.806070 -0.402060 -19.232833 -2.255949 4.348172 1.259172 -2.427557 0.212744 0.451143 -0.248039 0.000000 0.000000 0.000000 0.209998 0.457542 -0.249457 -0.676048 0.363728 3.241259 11.273839 13.135221 10.728870 0.000000 -0.000001 0.000001 2.666470 -4.458589 -11.991961 0.000000 0.000000 0.000000 -11.925388 -18.438330 -60.942629 0.000007 -15.296907 0.000015 21.654169 -9.509526 -12.534828 3.397826 -6.557756 3.595398 15.782393 22.471719 8.580119 -7.032741 9.518544 11.683298 -0.000000 0.000003 0.000002 -1.195639 -0.465182 -28.245547 0.364145 2.035041 -20.288320 0.055330 0.804077 -7.871645 0.000002 -0.000001 0.000001 0.355575 4.762382 -38.285987 0.507586 2.387230 -24.004930 0.209304 1.553481 -15.345796 -0.000001 -0.000001 0.000002 6.487992 10.665036 -48.294024 0.477657 2.318873 -23.275632 0.453819 2.262720 -22.679230 0.000001 0.000001 0.000001 2.229757 0.129002 15.927629 0.000000 0.000000 0.000000 5.674423 -0.408638 64.436947 -0.000001 15.408103 0.000014 1.035993 6.325153 -5.049667 -1.352780 9.111909 0.370098 16.874373 -29.512790 -6.239158 -14.986396 -10.661150 -18.063084 -0.000000 0.000000 0.000005 -1.055119 2.974100 11.633325 0.216292 -1.404173 17.511905 0.062040 -0.758463 9.352611 0.000001 -0.000000 0.000001 -0.609014 -1.094598 18.696415 0.373063 -1.828111 23.066792 0.371469 -1.824294 23.015866 -0.000000 -0.000001 0.000001 1.805383 -6.986250 25.613592 0.549370 -2.196233 28.084481 0.545487 -2.188950 27.983051 0.000000 0.000001 -0.000002 -6.893473 6.449278 -0.888762 25.861646 8.434803 1.762686 -20.131040 21.029579 -0.122584 -10.633063 0.000021 0.000003 0.000001 -0.000002 -0.000001 -14.684729 -6.710094 -13.561096 19.682170 3.892749 3.966140 -16.488309 -4.159806 6.322418 -8.406649 0.000070 0.000004 -0.000000 0.000001 -0.000000 
3.792128 34.089607 -1.767055 -0.324260 -19.533827 -2.359321 4.286501 1.004441 -2.504080 0.189584 0.383773 -0.265578 0.000000 0.000000 0.000000 0.187298 0.390526 -0.267591 -0.708657 0.408957 3.345580 11.332366 13.840951 11.023656 0.000001 -0.000000 0.000001 2.653985 -4.597931 -11.892579 0.000000 0.000000 0.000000 -12.075098 -19.152994 -61.241225 0.000000 -15.715097 0.000007 21.497047 -9.669910 -10.948866 3.397824 -6.557753 3.595398 15.782122 22.476874 8.582040 -6.906149 9.605758 11.585865 -0.000002 -0.000000 -0.000002 -1.165835 -0.588587 -27.380963 0.367657 2.044498 -20.386805 0.056526 0.812724 -7.956794 0.000001 -0.000001 -0.000002 0.364652 4.782507 -38.483236 0.512337 2.397854 -24.118653 0.206250 1.542327 -15.232961 0.000001 -0.000003 -0.000000 6.537692 10.676716 -48.526872 0.471588 2.304717 -23.125072 0.448271 2.249419 -22.538465 -0.000001 0.000001 0.000001 2.263681 -0.037344 16.070774 0.000000 0.000000 0.000000 5.438915 -0.171341 64.671496 0.000009 15.685835 -0.000007 1.013120 5.195180 -3.929815 -1.352779 9.111909 0.370100 16.861999 -29.498347 -6.250187 -15.020597 -10.556022 -18.134770 -0.000000 -0.000001 0.000003 -1.134064 2.859895 12.607713 0.219253 -1.413575 17.633011 0.056872 -0.726301 8.952612 0.000001 -0.000001 -0.000000 -0.612865 -1.120404 18.937864 0.356223 -1.788068 22.533001 0.363213 -1.804757 22.755325 0.000001 -0.000001 -0.000000 1.775713 -6.972110 25.217381 0.529216 -2.158061 27.553866 0.545463 -2.188908 27.982401 -0.000001 -0.000000 0.000000 -6.884236 6.441554 -0.996211 25.879235 8.441617 1.764813 -20.229268 21.309929 0.054094 -10.597837 0.000028 0.000002 0.000001 -0.000000 0.000000 -14.712209 -6.683907 -13.503189 19.413846 3.954992 3.940102 -16.496375 -4.154100 6.234658 -8.391095 0.000049 0.000003 0.000002 0.000001 0.000000 
3.871593 34.092712 -1.729258 -0.222263 -19.818161 -2.443004 4.210646 0.732701 -2.603952 0.165082 0.312359 -0.289361 0.000000 0.000000 0.000000 0.163354 0.319515 -0.292051 -0.743325 0.449655 3.455310 11.434274 14.520116 11.315072 -0.000001 -0.000000 0.000000 2.633637 -4.716146 -11.762431 0.000000 0.000000 0.000000 -12.145313 -19.959027 -61.514637 -0.000002 -16.226667 0.000003 21.493157 -9.651190 -9.215278 3.397826 -6.557753 3.595397 15.782078 22.484747 8.583428 -6.808640 9.671984 11.511708 -0.000001 0.000001 -0.000000 -1.129466 -0.729822 -26.391106 0.368784 2.047550 -20.418646 0.057704 0.821083 -8.039251 0.000003 0.000005 -0.000000 0.367273 4.788597 -38.547013 0.516953 2.408118 -24.228754 0.203851 1.533439 -15.142960 -0.000000 0.000001 -0.000002 6.588655 10.690130 -48.752480 0.466765 2.293424 -23.004984 0.442773 2.236102 -22.397760 0.000001 -0.000000 -0.000001 2.301193 -0.222079 16.229590 0.000000 0.000000 0.000000 5.160315 0.078140 64.897787 0.000011 15.935560 0.000013 1.068249 3.974128 -2.851377 -1.352778 9.111911 0.370097 16.865288 -29.501752 -6.248115 -15.045008 -10.477239 -18.185252 0.000003 -0.000000 0.000001 -1.209435 2.733154 13.613614 0.224448 -1.429763 17.841795 0.052508 -0.698130 8.602705 0.000002 -0.000001 -0.000002 -0.620054 -1.162466 19.354185 0.341797 -1.752908 22.066091 0.352930 -1.780054 22.426552 -0.000000 0.000000 0.000001 1.768472 -6.976981 25.051978 0.508407 -2.117749 26.996447 0.542686 -2.183671 27.909546 -0.000000 -0.000001 0.000003 -6.891810 6.428964 -1.106013 25.871192 8.447906 1.767094 -20.315288 21.585136 0.227291 -10.562624 0.000016 0.000003 0.000001 -0.000001 0.000000 -14.749099 -6.658873 -13.453235 19.165038 3.976190 3.903102 -16.535856 -4.155698 6.167862 -8.375534 0.000059 0.000007 -0.000003 -0.000001 -0.000000 
3.946345 34.097282 -1.691829 -0.086059 -20.094184 -2.509600 4.112026 0.455420 -2.726053 0.138035 0.240252 -0.315975 0.000000 0.000000 0.000000 0.136930 0.247834 -0.319405 -0.779926 0.485279 3.569734 11.569300 15.164371 11.594005 -0.000001 0.000000 0.000000 2.611128 -4.805597 -11.630870 0.000000 0.000000 0.000000 -12.175091 -20.855178 -61.745258 0.000008 -16.823731 0.000006 21.773861 -9.467371 -7.469720 3.397823 -6.557755 3.595400 15.782460 22.486817 8.582364 -6.767631 9.701826 11.479328 0.000001 0.000001 -0.000000 -1.094907 -0.883135 -25.362210 0.367651 2.044524 -20.387165 0.059039 0.830409 -8.130981 -0.000001 -0.000000 0.000000 0.363610 4.781240 -38.484059 0.522120 2.419543 -24.351233 0.202290 1.527701 -15.084992 0.000000 0.000000 -0.000000 6.647695 10.706602 -49.003599 0.463672 2.286119 -22.927591 0.437430 2.223127 -22.260599 0.000001 0.000001 -0.000000 2.342166 -0.439309 16.405641 0.000000 0.000000 0.000000 4.855270 0.354268 65.099175 0.000017 16.165734 0.000008 1.199183 2.678671 -1.823895 -1.352778 9.111916 0.370103 16.871590 -29.508770 -6.243209 -15.062466 -10.421754 -18.221029 0.000003 0.000003 0.000003 -1.296294 2.624673 14.634713 0.231587 -1.451791 18.126308 0.049092 -0.675116 8.317026 -0.000001 -0.000000 -0.000000 -0.630227 -1.217375 19.921766 0.330260 -1.724120 21.684930 0.341735 -1.752764 22.064322 -0.000001 0.000001 -0.000004 1.780266 -6.994587 25.111515 0.487743 -2.076724 26.431825 0.536420 -2.171814 27.744799 -0.000000 0.000000 0.000002 -6.927586 6.404357 -1.227031 25.851525 8.456850 1.788152 -20.415698 21.873351 0.397072 -10.527443 0.000014 0.000004 0.000001 -0.000001 -0.000000 -14.804864 -6.632481 -13.399746 18.901194 3.978364 3.866643 -16.559216 -4.157543 6.099670 -8.359977 0.000049 -0.000005 -0.000003 -0.000000 -0.000000 
4.016580 34.103626 -1.653966 0.089726 -20.363714 -2.564686 3.985001 0.182694 -2.867593 0.108365 0.169811 -0.345939 0.000000 0.000000 0.000000 0.107951 0.177822 -0.350155 -0.816813 0.513492 3.692736 11.709280 15.764159 11.871392 0.000001 0.000000 -0.000001 2.588612 -4.869835 -11.506951 0.000000 0.000000 0.000000 -12.196943 -21.829840 -61.937221 -0.000000 -17.471486 0.000010 22.288673 -9.172687 -5.639342 3.397829 -6.557753 3.595397 15.777635 22.460749 8.596398 -6.733330 9.736642 11.438440 -0.000000 -0.000002 -0.000004 -1.080904 -1.075814 -24.269626 0.364632 2.036406 -20.302403 0.060563 0.841125 -8.236800 0.000001 0.000002 -0.000001 0.353632 4.761188 -38.314448 0.528096 2.432698 -24.492546 0.201691 1.525476 -15.062341 0.000002 -0.000000 0.000002 6.691707 10.704644 -49.292061 0.462461 2.283271 -22.897386 0.432597 2.211292 -22.135596 -0.000001 0.000000 0.000001 2.389276 -0.693200 16.609494 0.000000 0.000000 0.000000 4.537145 0.660917 65.259575 -0.000005 16.375641 0.000020 1.427030 1.365767 -0.854671 -1.352780 9.111914 0.370102 16.871377 -29.508784 -6.242793 -15.079400 -10.367104 -18.256761 0.000003 -0.000002 -0.000000 -1.385506 2.521122 15.653166 0.240456 -1.478598 18.473158 0.046553 -0.657512 8.098612 0.000000 -0.000001 0.000001 -0.643586 -1.279875 20.614146 0.321542 -1.702061 21.393462 0.330249 -1.724133 21.685268 0.000001 -0.000000 -0.000002 1.802765 -7.011924 25.355599 0.468592 -2.037745 25.898011 0.526591 -2.153042 27.484239 0.000000 0.000001 0.000000 -7.004922 6.371218 -1.348087 25.835631 8.468070 1.828136 -20.534436 22.167176 0.559540 -10.492322 0.000012 0.000003 0.000001 -0.000001 -0.000000 -14.875462 -6.606167 -13.330817 18.587499 3.967902 3.838194 -16.526146 -4.155332 6.018670 -8.344459 0.000052 0.000007 0.000003 -0.000002 -0.000001 
4.082041 34.111382 -1.615309 0.299892 -20.621892 -2.613468 3.832391 -0.080410 -3.025642 0.077692 0.101785 -0.381622 0.000000 0.000000 0.000000 0.078041 0.110211 -0.386651 -0.852107 0.532372 3.826696 11.828999 16.309850 12.165907 0.000000 0.000000 -0.000000 2.564868 -4.926250 -11.379746 0.000000 0.000000 0.000000 -12.213197 -22.862846 -62.107812 0.000011 -18.142167 0.000003 22.864659 -8.838448 -3.506344 3.397825 -6.557755 3.595402 15.769438 22.416367 8.620246 -6.704904 9.773623 11.393230 -0.000002 0.000000 0.000003 -1.068487 -1.311723 -23.002380 0.359630 2.022789 -20.160622 0.062279 0.852889 -8.352976 -0.000001 0.000003 -0.000002 0.335307 4.725312 -38.030920 0.534704 2.447152 -24.647721 0.202084 1.526925 -15.077142 0.000000 -0.000000 0.000003 6.725046 10.689718 -49.607999 0.463270 2.285132 -22.917139 0.428338 2.200795 -22.025065 0.000001 0.000000 -0.000000 2.444025 -0.976147 16.846605 0.000000 0.000000 0.000000 4.202604 0.971069 65.380654 -0.000005 16.547045 0.000005 1.781309 0.105559 0.086182 -1.352783 9.111916 0.370103 16.852877 -29.488700 -6.255680 -15.106200 -10.283851 -18.314587 -0.000000 0.000000 0.000003 -1.473958 2.416691 16.673848 0.250806 -1.509244 18.870435 0.044879 -0.645642 7.951389 -0.000001 -0.000000 -0.000003 -0.661189 -1.343484 21.407695 0.315707 -1.687156 21.197002 0.318401 -1.694033 21.287651 0.000001 -0.000001 0.000004 1.825575 -7.008278 25.777282 0.452123 -2.003500 25.431055 0.514292 -2.129266 27.155372 -0.000001 0.000000 0.000000 -7.125413 6.338410 -1.452146 25.831219 8.479152 1.874470 -20.658875 22.447657 0.710542 -10.457271 0.000007 0.000003 -0.000000 0.000003 0.000000 -14.946920 -6.582862 -13.242160 18.214933 3.935100 3.815160 -16.430225 -4.149666 5.930627 -8.328979 0.000064 0.000001 -0.000001 -0.000001 -0.000000 
